<?xml version="1.0" encoding="utf-8"?>
<svg
  viewBox="0 0 500 500"
  width="128px"
  height="128px"
  xmlns="http://www.w3.org/2000/svg"
  xmlns:xlink="http://www.w3.org/1999/xlink"
  xmlns:bx="https://boxy-svg.com"
>
  <g id="gMain" style="transform-origin: center">
    <g id="gSub" style="transform-origin: center">
      <g style="transform-origin: center">
        <path
          style="fill: rgb(255, 160, 32)"
          d="M 25 175 C 25 175 100 75 225 100 C 302.52 115.5 300 175 300 200 C 350 200 375 150 350 100 C 325 50 275 25 225 25 C 50 25 25 175 25 175 Z"
        />

        <path
          style="fill: rgb(255, 160, 32)"
          d="M 140.2 450 C 140.2 450 215.95 346.56 340.21 375 C 417.73 392.74 415.2 454.29 415.2 475 C 465.2 475 490.2 425 465.2 375 C 440.2 325 390.2 300 340.2 300 C 165.2 300 140.2 450 140.2 450 Z"
          transform="matrix(-1, 0, 0, -1, 615.207611, 775)"
        />

        <path
          style="fill: rgb(32, 160, 255)"
          d="M 220.1 254.9 C 220.1 254.9 295.1 154.9 420.1 179.9 C 497.62 195.4 495.1 254.9 495.1 279.9 C 545.1 279.9 570.1 229.9 545.1 179.9 C 520.1 129.9 470.1 104.9 420.1 104.9 C 245.1 104.9 220.1 254.9 220.1 254.9 Z"
          transform="matrix(0, 1, -1, 0, 579.903801, -195.103798)"
        />

        <path
          style="fill: rgb(32, 160, 255)"
          d="M -54.9 370.1 C -54.9 370.1 20.1 270.1 145.1 295.1 C 222.62 310.6 220.1 370.1 220.1 395.1 C 270.1 395.1 295.1 345.1 270.1 295.1 C 245.1 245.1 195.1 220.1 145.1 220.1 C -29.9 220.1 -54.9 370.1 -54.9 370.1 Z"
          transform="matrix(0, -1, 1, 0, -195.096199, 420.103813)"
        />
      </g>

      <circle
        fill="rgb(32, 0, 160)"
        style="transform-origin: center"
        cx="250"
        cy="250"
        r="50"
      >
        <animateTransform
          id="centerPulse"
          attributeName="transform"
          type="scale"
          additive="sum"
          values="1 1; 1.6 1.6 ; 1 1"
          begin="mainAnim.begin"
          end="mainAnim.end 2s"
          dur="4s"
          repeatCount="1"
        />
        <animate
          id="centerColor"
          attributeType="XML"
          attributeName="fill"
          values="rgb(32, 0, 160); rgb(160, 0, 32); rgb(32, 0, 160)"
          begin="mainAnim.begin"
          end="mainAnim.end 2s"
          dur="8s"
          repeatCount="1"
        />
      </circle>
    </g>
    <animateTransform
      id="mainAnim"
      attributeName="transform"
      type="rotate"
      additive="sum"
      from="0"
      to="360"
      begin="mouseenter"
      end="mouseleave 2s"
      dur="6s"
      repeatCount="1"
    />
    <circle fill="rgba(32, 0, 160, 0.0)" cx="250" cy="250" r="250" />
  </g>
</svg>
